<svg width="313" height="237" viewBox="0 0 313 237" fill="none" xmlns="http://www.w3.org/2000/svg">
<path d="M100.328 183V165.545H106.72C107.958 165.545 108.984 165.75 109.797 166.159C110.609 166.562 111.217 167.111 111.62 167.804C112.024 168.491 112.225 169.267 112.225 170.131C112.225 170.858 112.092 171.472 111.825 171.972C111.558 172.466 111.2 172.864 110.751 173.165C110.308 173.46 109.819 173.676 109.285 173.812V173.983C109.865 174.011 110.43 174.199 110.981 174.545C111.538 174.886 111.998 175.372 112.362 176.003C112.725 176.634 112.907 177.401 112.907 178.304C112.907 179.196 112.697 179.997 112.277 180.707C111.862 181.412 111.22 181.972 110.35 182.386C109.481 182.795 108.37 183 107.018 183H100.328ZM102.961 180.741H106.762C108.024 180.741 108.927 180.497 109.473 180.009C110.018 179.52 110.291 178.909 110.291 178.176C110.291 177.625 110.152 177.119 109.873 176.659C109.595 176.199 109.197 175.832 108.68 175.56C108.169 175.287 107.561 175.151 106.856 175.151H102.961V180.741ZM102.961 173.097H106.49C107.081 173.097 107.612 172.983 108.083 172.756C108.561 172.528 108.939 172.21 109.217 171.801C109.501 171.386 109.643 170.898 109.643 170.335C109.643 169.614 109.39 169.009 108.885 168.52C108.379 168.031 107.603 167.787 106.558 167.787H102.961V173.097ZM121.468 183.264C120.179 183.264 119.068 182.989 118.136 182.438C117.21 181.881 116.494 181.099 115.988 180.094C115.488 179.082 115.238 177.898 115.238 176.54C115.238 175.199 115.488 174.017 115.988 172.994C116.494 171.972 117.199 171.173 118.102 170.599C119.011 170.026 120.074 169.739 121.289 169.739C122.028 169.739 122.744 169.861 123.437 170.105C124.13 170.349 124.752 170.733 125.304 171.256C125.855 171.778 126.289 172.457 126.608 173.293C126.926 174.122 127.085 175.131 127.085 176.318V177.222H116.679V175.312H124.588C124.588 174.642 124.451 174.048 124.179 173.531C123.906 173.009 123.522 172.597 123.028 172.295C122.539 171.994 121.966 171.844 121.306 171.844C120.591 171.844 119.966 172.02 119.431 172.372C118.903 172.719 118.494 173.173 118.204 173.736C117.92 174.293 117.778 174.898 117.778 175.551V177.043C117.778 177.918 117.931 178.662 118.238 179.276C118.551 179.889 118.985 180.358 119.542 180.682C120.099 181 120.75 181.159 121.494 181.159C121.977 181.159 122.417 181.091 122.815 180.955C123.213 180.812 123.556 180.602 123.846 180.324C124.136 180.045 124.358 179.702 124.511 179.293L126.923 179.727C126.73 180.437 126.383 181.06 125.883 181.594C125.389 182.122 124.767 182.534 124.017 182.83C123.272 183.119 122.423 183.264 121.468 183.264ZM139.722 173.105L137.412 173.514C137.316 173.219 137.162 172.937 136.952 172.67C136.748 172.403 136.469 172.185 136.117 172.014C135.765 171.844 135.324 171.759 134.796 171.759C134.074 171.759 133.472 171.92 132.989 172.244C132.506 172.562 132.265 172.974 132.265 173.48C132.265 173.918 132.426 174.27 132.75 174.537C133.074 174.804 133.597 175.023 134.319 175.193L136.398 175.67C137.603 175.949 138.5 176.378 139.091 176.957C139.682 177.537 139.978 178.29 139.978 179.216C139.978 180 139.75 180.699 139.296 181.312C138.847 181.92 138.219 182.398 137.412 182.744C136.611 183.091 135.682 183.264 134.625 183.264C133.159 183.264 131.963 182.952 131.037 182.327C130.111 181.696 129.543 180.801 129.333 179.642L131.796 179.267C131.949 179.909 132.265 180.395 132.742 180.724C133.219 181.048 133.841 181.21 134.608 181.21C135.444 181.21 136.111 181.037 136.611 180.69C137.111 180.338 137.361 179.909 137.361 179.403C137.361 178.994 137.208 178.651 136.901 178.372C136.6 178.094 136.137 177.884 135.512 177.741L133.296 177.256C132.074 176.977 131.171 176.534 130.586 175.926C130.006 175.318 129.716 174.548 129.716 173.616C129.716 172.844 129.932 172.168 130.364 171.588C130.796 171.009 131.392 170.557 132.154 170.233C132.915 169.903 133.787 169.739 134.77 169.739C136.185 169.739 137.299 170.045 138.111 170.659C138.924 171.267 139.461 172.082 139.722 173.105ZM148.89 169.909V171.955H141.74V169.909H148.89ZM143.657 166.773H146.206V179.156C146.206 179.651 146.279 180.023 146.427 180.273C146.575 180.517 146.765 180.685 146.998 180.776C147.237 180.861 147.495 180.903 147.774 180.903C147.978 180.903 148.157 180.889 148.311 180.861C148.464 180.832 148.583 180.81 148.669 180.793L149.129 182.898C148.981 182.955 148.771 183.011 148.498 183.068C148.225 183.131 147.885 183.165 147.475 183.17C146.805 183.182 146.18 183.062 145.6 182.812C145.021 182.562 144.552 182.176 144.194 181.653C143.836 181.131 143.657 180.474 143.657 179.685V166.773ZM158.265 183V165.545H164.487C165.845 165.545 166.97 165.793 167.862 166.287C168.754 166.781 169.422 167.457 169.865 168.315C170.308 169.168 170.529 170.128 170.529 171.196C170.529 172.27 170.305 173.236 169.856 174.094C169.413 174.946 168.743 175.622 167.845 176.122C166.953 176.616 165.831 176.864 164.478 176.864H160.2V174.631H164.24C165.098 174.631 165.794 174.483 166.328 174.188C166.862 173.886 167.254 173.477 167.504 172.96C167.754 172.443 167.879 171.855 167.879 171.196C167.879 170.537 167.754 169.952 167.504 169.44C167.254 168.929 166.859 168.528 166.319 168.239C165.785 167.949 165.081 167.804 164.206 167.804H160.899V183H158.265ZM173.412 183V169.909H175.875V171.989H176.012C176.25 171.284 176.671 170.73 177.273 170.327C177.881 169.918 178.569 169.713 179.336 169.713C179.495 169.713 179.682 169.719 179.898 169.73C180.12 169.741 180.293 169.756 180.418 169.773V172.21C180.316 172.182 180.134 172.151 179.873 172.116C179.611 172.077 179.35 172.057 179.088 172.057C178.486 172.057 177.949 172.185 177.478 172.44C177.012 172.69 176.642 173.04 176.37 173.489C176.097 173.932 175.961 174.437 175.961 175.006V183H173.412ZM182.623 183V169.909H185.172V183H182.623ZM183.91 167.889C183.467 167.889 183.086 167.741 182.768 167.446C182.456 167.145 182.299 166.787 182.299 166.372C182.299 165.952 182.456 165.594 182.768 165.298C183.086 164.997 183.467 164.847 183.91 164.847C184.353 164.847 184.731 164.997 185.044 165.298C185.362 165.594 185.521 165.952 185.521 166.372C185.521 166.787 185.362 167.145 185.044 167.446C184.731 167.741 184.353 167.889 183.91 167.889ZM194.114 183.264C192.847 183.264 191.756 182.977 190.841 182.403C189.932 181.824 189.233 181.026 188.745 180.009C188.256 178.991 188.012 177.827 188.012 176.514C188.012 175.185 188.262 174.011 188.762 172.994C189.262 171.972 189.966 171.173 190.875 170.599C191.784 170.026 192.855 169.739 194.088 169.739C195.083 169.739 195.969 169.923 196.748 170.293C197.526 170.656 198.154 171.168 198.631 171.827C199.114 172.486 199.401 173.256 199.492 174.136H197.012C196.875 173.523 196.563 172.994 196.074 172.551C195.591 172.108 194.944 171.886 194.131 171.886C193.421 171.886 192.799 172.074 192.265 172.449C191.736 172.818 191.324 173.347 191.029 174.034C190.733 174.716 190.586 175.523 190.586 176.455C190.586 177.409 190.73 178.233 191.02 178.926C191.31 179.619 191.719 180.156 192.248 180.537C192.782 180.918 193.409 181.108 194.131 181.108C194.614 181.108 195.051 181.02 195.444 180.844C195.841 180.662 196.174 180.403 196.441 180.068C196.713 179.733 196.904 179.33 197.012 178.858H199.492C199.401 179.705 199.125 180.46 198.665 181.125C198.205 181.79 197.588 182.312 196.816 182.693C196.049 183.074 195.148 183.264 194.114 183.264ZM207.859 183.264C206.569 183.264 205.458 182.989 204.527 182.438C203.6 181.881 202.885 181.099 202.379 180.094C201.879 179.082 201.629 177.898 201.629 176.54C201.629 175.199 201.879 174.017 202.379 172.994C202.885 171.972 203.589 171.173 204.493 170.599C205.402 170.026 206.464 169.739 207.68 169.739C208.419 169.739 209.135 169.861 209.828 170.105C210.521 170.349 211.143 170.733 211.694 171.256C212.245 171.778 212.68 172.457 212.998 173.293C213.316 174.122 213.475 175.131 213.475 176.318V177.222H203.069V175.312H210.978C210.978 174.642 210.842 174.048 210.569 173.531C210.297 173.009 209.913 172.597 209.419 172.295C208.93 171.994 208.356 171.844 207.697 171.844C206.981 171.844 206.356 172.02 205.822 172.372C205.294 172.719 204.885 173.173 204.595 173.736C204.311 174.293 204.169 174.898 204.169 175.551V177.043C204.169 177.918 204.322 178.662 204.629 179.276C204.941 179.889 205.376 180.358 205.933 180.682C206.49 181 207.14 181.159 207.885 181.159C208.368 181.159 208.808 181.091 209.206 180.955C209.603 180.812 209.947 180.602 210.237 180.324C210.527 180.045 210.748 179.702 210.902 179.293L213.314 179.727C213.12 180.437 212.774 181.06 212.274 181.594C211.779 182.122 211.157 182.534 210.407 182.83C209.663 183.119 208.814 183.264 207.859 183.264Z" fill="#232323"/>
<path d="M40.0481 211V197.909H41.6333V209.594H47.7186V211H40.0481ZM53.9572 211.205C53.0708 211.205 52.2931 210.994 51.6241 210.572C50.9593 210.15 50.4395 209.56 50.0645 208.801C49.6937 208.043 49.5083 207.156 49.5083 206.142C49.5083 205.119 49.6937 204.227 50.0645 203.464C50.4395 202.701 50.9593 202.109 51.6241 201.687C52.2931 201.265 53.0708 201.054 53.9572 201.054C54.8436 201.054 55.6191 201.265 56.2839 201.687C56.9529 202.109 57.4728 202.701 57.8436 203.464C58.2186 204.227 58.4061 205.119 58.4061 206.142C58.4061 207.156 58.2186 208.043 57.8436 208.801C57.4728 209.56 56.9529 210.15 56.2839 210.572C55.6191 210.994 54.8436 211.205 53.9572 211.205ZM53.9572 209.849C54.6305 209.849 55.1845 209.677 55.6191 209.332C56.0538 208.987 56.3755 208.533 56.5843 207.97C56.7931 207.408 56.8976 206.798 56.8976 206.142C56.8976 205.486 56.7931 204.874 56.5843 204.308C56.3755 203.741 56.0538 203.283 55.6191 202.933C55.1845 202.584 54.6305 202.409 53.9572 202.409C53.2839 202.409 52.7299 202.584 52.2953 202.933C51.8606 203.283 51.5389 203.741 51.3301 204.308C51.1213 204.874 51.0169 205.486 51.0169 206.142C51.0169 206.798 51.1213 207.408 51.3301 207.97C51.5389 208.533 51.8606 208.987 52.2953 209.332C52.7299 209.677 53.2839 209.849 53.9572 209.849ZM60.7088 211V201.182H62.1662V202.665H62.2685C62.4474 202.179 62.7713 201.785 63.2401 201.482C63.7088 201.18 64.2372 201.028 64.8253 201.028C64.9361 201.028 65.0746 201.031 65.2408 201.035C65.407 201.039 65.5327 201.045 65.6179 201.054V202.588C65.5668 202.575 65.4496 202.556 65.2663 202.531C65.0874 202.501 64.8977 202.486 64.6974 202.486C64.2202 202.486 63.794 202.586 63.419 202.786C63.0483 202.982 62.7543 203.255 62.5369 203.604C62.3239 203.95 62.2173 204.344 62.2173 204.787V211H60.7088ZM71.2237 211.205C70.2777 211.205 69.4616 210.996 68.7756 210.578C68.0938 210.156 67.5675 209.568 67.1967 208.814C66.8303 208.055 66.647 207.173 66.647 206.168C66.647 205.162 66.8303 204.276 67.1967 203.509C67.5675 202.737 68.0831 202.136 68.7436 201.706C69.4084 201.271 70.1839 201.054 71.0703 201.054C71.5817 201.054 72.0866 201.139 72.5852 201.31C73.0838 201.48 73.5376 201.757 73.9467 202.141C74.3558 202.52 74.6818 203.023 74.9247 203.649C75.1676 204.276 75.2891 205.047 75.2891 205.963V206.602H67.7209V205.298H73.755C73.755 204.744 73.6442 204.25 73.4226 203.815C73.2053 203.381 72.8942 203.038 72.4893 202.786C72.0888 202.535 71.6158 202.409 71.0703 202.409C70.4695 202.409 69.9496 202.558 69.5107 202.857C69.076 203.151 68.7415 203.534 68.5071 204.007C68.2727 204.48 68.1555 204.987 68.1555 205.528V206.398C68.1555 207.139 68.2834 207.768 68.5391 208.283C68.799 208.795 69.1591 209.185 69.6193 209.453C70.0795 209.717 70.6143 209.849 71.2237 209.849C71.62 209.849 71.978 209.794 72.2976 209.683C72.6214 209.568 72.9006 209.398 73.1349 209.172C73.3693 208.942 73.5504 208.656 73.6783 208.315L75.1357 208.724C74.9822 209.219 74.7244 209.653 74.3622 210.028C74 210.399 73.5526 210.689 73.0199 210.898C72.4872 211.102 71.8885 211.205 71.2237 211.205ZM77.5838 211V201.182H79.0412V202.716H79.169C79.3736 202.192 79.7038 201.785 80.1598 201.495C80.6158 201.201 81.1634 201.054 81.8026 201.054C82.4503 201.054 82.9893 201.201 83.4197 201.495C83.8544 201.785 84.1932 202.192 84.4361 202.716H84.5384C84.7898 202.209 85.1669 201.806 85.6697 201.508C86.1726 201.205 86.7756 201.054 87.4787 201.054C88.3565 201.054 89.0746 201.329 89.6328 201.879C90.1911 202.424 90.4702 203.274 90.4702 204.429V211H88.9616V204.429C88.9616 203.705 88.7635 203.187 88.3672 202.876C87.9709 202.565 87.5043 202.409 86.9673 202.409C86.277 202.409 85.7422 202.618 85.3629 203.036C84.9837 203.449 84.794 203.973 84.794 204.608V211H83.2599V204.276C83.2599 203.717 83.0788 203.268 82.7166 202.927C82.3544 202.582 81.8878 202.409 81.3168 202.409C80.9247 202.409 80.5582 202.513 80.2173 202.722C79.8807 202.931 79.608 203.221 79.3991 203.592C79.1946 203.958 79.0923 204.382 79.0923 204.864V211H77.5838ZM98.2908 211V201.182H99.7994V211H98.2908ZM99.0579 199.545C98.7638 199.545 98.5103 199.445 98.2972 199.245C98.0884 199.045 97.984 198.804 97.984 198.523C97.984 198.241 98.0884 198.001 98.2972 197.8C98.5103 197.6 98.7638 197.5 99.0579 197.5C99.3519 197.5 99.6033 197.6 99.8121 197.8C100.025 198.001 100.132 198.241 100.132 198.523C100.132 198.804 100.025 199.045 99.8121 199.245C99.6033 199.445 99.3519 199.545 99.0579 199.545ZM102.562 214.682V201.182H104.02V202.741H104.199C104.309 202.571 104.463 202.354 104.659 202.089C104.859 201.821 105.145 201.582 105.515 201.374C105.89 201.161 106.398 201.054 107.037 201.054C107.863 201.054 108.592 201.261 109.223 201.674C109.854 202.087 110.346 202.673 110.699 203.432C111.053 204.19 111.23 205.085 111.23 206.116C111.23 207.156 111.053 208.058 110.699 208.82C110.346 209.579 109.856 210.167 109.229 210.585C108.603 210.998 107.881 211.205 107.062 211.205C106.432 211.205 105.927 211.1 105.547 210.891C105.168 210.678 104.876 210.437 104.672 210.169C104.467 209.896 104.309 209.67 104.199 209.491H104.071V214.682H102.562ZM104.045 206.091C104.045 206.832 104.154 207.487 104.371 208.053C104.589 208.616 104.906 209.057 105.324 209.376C105.741 209.692 106.253 209.849 106.858 209.849C107.488 209.849 108.015 209.683 108.437 209.351C108.863 209.014 109.182 208.562 109.395 207.996C109.613 207.425 109.721 206.79 109.721 206.091C109.721 205.401 109.615 204.778 109.402 204.224C109.193 203.666 108.876 203.225 108.449 202.901C108.028 202.573 107.497 202.409 106.858 202.409C106.244 202.409 105.729 202.565 105.311 202.876C104.893 203.183 104.578 203.613 104.365 204.167C104.152 204.717 104.045 205.358 104.045 206.091ZM120.486 203.381L119.131 203.764C119.045 203.538 118.92 203.319 118.753 203.106C118.591 202.888 118.37 202.71 118.089 202.569C117.807 202.428 117.447 202.358 117.008 202.358C116.407 202.358 115.907 202.496 115.506 202.773C115.11 203.046 114.912 203.393 114.912 203.815C114.912 204.19 115.048 204.487 115.321 204.704C115.594 204.921 116.02 205.102 116.599 205.247L118.057 205.605C118.934 205.818 119.589 206.144 120.019 206.583C120.449 207.018 120.665 207.578 120.665 208.264C120.665 208.827 120.503 209.33 120.179 209.773C119.859 210.216 119.412 210.565 118.836 210.821C118.261 211.077 117.592 211.205 116.829 211.205C115.828 211.205 114.999 210.987 114.343 210.553C113.687 210.118 113.271 209.483 113.096 208.648L114.528 208.29C114.665 208.818 114.922 209.214 115.302 209.479C115.685 209.743 116.186 209.875 116.804 209.875C117.507 209.875 118.065 209.726 118.479 209.428C118.896 209.125 119.105 208.763 119.105 208.341C119.105 208 118.986 207.714 118.747 207.484C118.508 207.25 118.142 207.075 117.648 206.96L116.011 206.577C115.112 206.364 114.452 206.033 114.03 205.586C113.612 205.134 113.403 204.57 113.403 203.892C113.403 203.338 113.559 202.848 113.87 202.422C114.185 201.996 114.613 201.661 115.155 201.418C115.7 201.175 116.318 201.054 117.008 201.054C117.98 201.054 118.743 201.267 119.297 201.693C119.855 202.119 120.251 202.682 120.486 203.381ZM129.123 206.986V201.182H130.631V211H129.123V209.338H129.021C128.79 209.837 128.433 210.261 127.947 210.61C127.461 210.955 126.847 211.128 126.106 211.128C125.492 211.128 124.947 210.994 124.469 210.725C123.992 210.452 123.617 210.043 123.344 209.498C123.072 208.948 122.935 208.256 122.935 207.42V201.182H124.444V207.318C124.444 208.034 124.644 208.605 125.045 209.031C125.45 209.457 125.965 209.67 126.592 209.67C126.967 209.67 127.348 209.575 127.736 209.383C128.128 209.191 128.456 208.897 128.72 208.501C128.989 208.104 129.123 207.599 129.123 206.986ZM133.394 211V201.182H134.852V202.716H134.98C135.184 202.192 135.514 201.785 135.97 201.495C136.426 201.201 136.974 201.054 137.613 201.054C138.261 201.054 138.8 201.201 139.23 201.495C139.665 201.785 140.004 202.192 140.247 202.716H140.349C140.6 202.209 140.977 201.806 141.48 201.508C141.983 201.205 142.586 201.054 143.289 201.054C144.167 201.054 144.885 201.329 145.443 201.879C146.002 202.424 146.281 203.274 146.281 204.429V211H144.772V204.429C144.772 203.705 144.574 203.187 144.178 202.876C143.781 202.565 143.315 202.409 142.778 202.409C142.088 202.409 141.553 202.618 141.173 203.036C140.794 203.449 140.605 203.973 140.605 204.608V211H139.07V204.276C139.07 203.717 138.889 203.268 138.527 202.927C138.165 202.582 137.698 202.409 137.127 202.409C136.735 202.409 136.369 202.513 136.028 202.722C135.691 202.931 135.419 203.221 135.21 203.592C135.005 203.958 134.903 204.382 134.903 204.864V211H133.394ZM157.809 211.205C156.991 211.205 156.268 210.998 155.642 210.585C155.015 210.167 154.525 209.579 154.172 208.82C153.818 208.058 153.641 207.156 153.641 206.116C153.641 205.085 153.818 204.19 154.172 203.432C154.525 202.673 155.018 202.087 155.648 201.674C156.279 201.261 157.008 201.054 157.834 201.054C158.474 201.054 158.979 201.161 159.349 201.374C159.724 201.582 160.01 201.821 160.206 202.089C160.406 202.354 160.562 202.571 160.672 202.741H160.8V197.909H162.309V211H160.851V209.491H160.672C160.562 209.67 160.404 209.896 160.199 210.169C159.995 210.437 159.703 210.678 159.324 210.891C158.944 211.1 158.439 211.205 157.809 211.205ZM158.013 209.849C158.618 209.849 159.13 209.692 159.547 209.376C159.965 209.057 160.282 208.616 160.5 208.053C160.717 207.487 160.826 206.832 160.826 206.091C160.826 205.358 160.719 204.717 160.506 204.167C160.293 203.613 159.978 203.183 159.56 202.876C159.143 202.565 158.627 202.409 158.013 202.409C157.374 202.409 156.841 202.573 156.415 202.901C155.993 203.225 155.676 203.666 155.463 204.224C155.254 204.778 155.15 205.401 155.15 206.091C155.15 206.79 155.256 207.425 155.469 207.996C155.687 208.562 156.006 209.014 156.428 209.351C156.854 209.683 157.383 209.849 158.013 209.849ZM169.27 211.205C168.383 211.205 167.606 210.994 166.937 210.572C166.272 210.15 165.752 209.56 165.377 208.801C165.006 208.043 164.821 207.156 164.821 206.142C164.821 205.119 165.006 204.227 165.377 203.464C165.752 202.701 166.272 202.109 166.937 201.687C167.606 201.265 168.383 201.054 169.27 201.054C170.156 201.054 170.932 201.265 171.596 201.687C172.265 202.109 172.785 202.701 173.156 203.464C173.531 204.227 173.719 205.119 173.719 206.142C173.719 207.156 173.531 208.043 173.156 208.801C172.785 209.56 172.265 210.15 171.596 210.572C170.932 210.994 170.156 211.205 169.27 211.205ZM169.27 209.849C169.943 209.849 170.497 209.677 170.932 209.332C171.366 208.987 171.688 208.533 171.897 207.97C172.106 207.408 172.21 206.798 172.21 206.142C172.21 205.486 172.106 204.874 171.897 204.308C171.688 203.741 171.366 203.283 170.932 202.933C170.497 202.584 169.943 202.409 169.27 202.409C168.596 202.409 168.042 202.584 167.608 202.933C167.173 203.283 166.851 203.741 166.643 204.308C166.434 204.874 166.329 205.486 166.329 206.142C166.329 206.798 166.434 207.408 166.643 207.97C166.851 208.533 167.173 208.987 167.608 209.332C168.042 209.677 168.596 209.849 169.27 209.849ZM177.53 197.909V211H176.021V197.909H177.53ZM184.281 211.205C183.395 211.205 182.617 210.994 181.948 210.572C181.284 210.15 180.764 209.56 180.389 208.801C180.018 208.043 179.833 207.156 179.833 206.142C179.833 205.119 180.018 204.227 180.389 203.464C180.764 202.701 181.284 202.109 181.948 201.687C182.617 201.265 183.395 201.054 184.281 201.054C185.168 201.054 185.943 201.265 186.608 201.687C187.277 202.109 187.797 202.701 188.168 203.464C188.543 204.227 188.73 205.119 188.73 206.142C188.73 207.156 188.543 208.043 188.168 208.801C187.797 209.56 187.277 210.15 186.608 210.572C185.943 210.994 185.168 211.205 184.281 211.205ZM184.281 209.849C184.955 209.849 185.509 209.677 185.943 209.332C186.378 208.987 186.7 208.533 186.909 207.97C187.117 207.408 187.222 206.798 187.222 206.142C187.222 205.486 187.117 204.874 186.909 204.308C186.7 203.741 186.378 203.283 185.943 202.933C185.509 202.584 184.955 202.409 184.281 202.409C183.608 202.409 183.054 202.584 182.619 202.933C182.185 203.283 181.863 203.741 181.654 204.308C181.445 204.874 181.341 205.486 181.341 206.142C181.341 206.798 181.445 207.408 181.654 207.97C181.863 208.533 182.185 208.987 182.619 209.332C183.054 209.677 183.608 209.849 184.281 209.849ZM191.033 211V201.182H192.49V202.665H192.593C192.772 202.179 193.096 201.785 193.564 201.482C194.033 201.18 194.561 201.028 195.15 201.028C195.26 201.028 195.399 201.031 195.565 201.035C195.731 201.039 195.857 201.045 195.942 201.054V202.588C195.891 202.575 195.774 202.556 195.591 202.531C195.412 202.501 195.222 202.486 195.022 202.486C194.544 202.486 194.118 202.586 193.743 202.786C193.373 202.982 193.078 203.255 192.861 203.604C192.648 203.95 192.542 204.344 192.542 204.787V211H191.033ZM209.747 203.381L208.392 203.764C208.307 203.538 208.181 203.319 208.015 203.106C207.853 202.888 207.632 202.71 207.35 202.569C207.069 202.428 206.709 202.358 206.27 202.358C205.669 202.358 205.169 202.496 204.768 202.773C204.372 203.046 204.173 203.393 204.173 203.815C204.173 204.19 204.31 204.487 204.583 204.704C204.855 204.921 205.281 205.102 205.861 205.247L207.318 205.605C208.196 205.818 208.85 206.144 209.281 206.583C209.711 207.018 209.926 207.578 209.926 208.264C209.926 208.827 209.764 209.33 209.441 209.773C209.121 210.216 208.673 210.565 208.098 210.821C207.523 211.077 206.854 211.205 206.091 211.205C205.09 211.205 204.261 210.987 203.605 210.553C202.948 210.118 202.533 209.483 202.358 208.648L203.79 208.29C203.926 208.818 204.184 209.214 204.563 209.479C204.947 209.743 205.448 209.875 206.066 209.875C206.769 209.875 207.327 209.726 207.74 209.428C208.158 209.125 208.367 208.763 208.367 208.341C208.367 208 208.247 207.714 208.009 207.484C207.77 207.25 207.404 207.075 206.909 206.96L205.273 206.577C204.374 206.364 203.713 206.033 203.291 205.586C202.874 205.134 202.665 204.57 202.665 203.892C202.665 203.338 202.82 202.848 203.132 202.422C203.447 201.996 203.875 201.661 204.416 201.418C204.962 201.175 205.58 201.054 206.27 201.054C207.242 201.054 208.004 201.267 208.558 201.693C209.117 202.119 209.513 202.682 209.747 203.381ZM212.197 211V201.182H213.706V211H212.197ZM212.964 199.545C212.67 199.545 212.417 199.445 212.203 199.245C211.995 199.045 211.89 198.804 211.89 198.523C211.89 198.241 211.995 198.001 212.203 197.8C212.417 197.6 212.67 197.5 212.964 197.5C213.258 197.5 213.51 197.6 213.718 197.8C213.931 198.001 214.038 198.241 214.038 198.523C214.038 198.804 213.931 199.045 213.718 199.245C213.51 199.445 213.258 199.545 212.964 199.545ZM220.738 201.182V202.46H215.65V201.182H220.738ZM217.133 198.83H218.642V208.188C218.642 208.614 218.704 208.933 218.827 209.146C218.955 209.355 219.117 209.496 219.313 209.568C219.513 209.636 219.724 209.67 219.946 209.67C220.112 209.67 220.248 209.662 220.355 209.645C220.461 209.624 220.547 209.607 220.611 209.594L220.917 210.949C220.815 210.987 220.672 211.026 220.489 211.064C220.306 211.107 220.074 211.128 219.792 211.128C219.366 211.128 218.949 211.036 218.54 210.853C218.135 210.67 217.798 210.391 217.53 210.016C217.265 209.641 217.133 209.168 217.133 208.597V198.83ZM230.959 211.23C230.337 211.23 229.773 211.113 229.265 210.879C228.758 210.64 228.356 210.297 228.057 209.849C227.759 209.398 227.61 208.852 227.61 208.213C227.61 207.651 227.721 207.195 227.942 206.845C228.164 206.491 228.46 206.214 228.831 206.014C229.202 205.814 229.611 205.665 230.058 205.567C230.51 205.464 230.964 205.384 231.42 205.324C232.016 205.247 232.5 205.19 232.871 205.151C233.246 205.109 233.518 205.038 233.689 204.94C233.863 204.842 233.951 204.672 233.951 204.429V204.378C233.951 203.747 233.778 203.257 233.433 202.908C233.092 202.558 232.574 202.384 231.88 202.384C231.16 202.384 230.595 202.541 230.186 202.857C229.777 203.172 229.489 203.509 229.323 203.866L227.891 203.355C228.147 202.759 228.488 202.294 228.914 201.962C229.344 201.625 229.813 201.391 230.32 201.259C230.831 201.122 231.334 201.054 231.829 201.054C232.144 201.054 232.506 201.092 232.915 201.169C233.329 201.241 233.727 201.393 234.111 201.623C234.498 201.853 234.82 202.2 235.076 202.665C235.331 203.129 235.459 203.751 235.459 204.531V211H233.951V209.67H233.874C233.772 209.884 233.601 210.112 233.363 210.354C233.124 210.597 232.807 210.804 232.41 210.974C232.014 211.145 231.53 211.23 230.959 211.23ZM231.189 209.875C231.786 209.875 232.289 209.758 232.698 209.523C233.111 209.289 233.422 208.987 233.631 208.616C233.844 208.245 233.951 207.855 233.951 207.446V206.065C233.887 206.142 233.746 206.212 233.529 206.276C233.316 206.336 233.069 206.389 232.787 206.436C232.51 206.479 232.24 206.517 231.976 206.551C231.716 206.581 231.505 206.607 231.343 206.628C230.951 206.679 230.584 206.762 230.243 206.877C229.907 206.988 229.634 207.156 229.425 207.382C229.221 207.604 229.118 207.906 229.118 208.29C229.118 208.814 229.312 209.21 229.7 209.479C230.092 209.743 230.589 209.875 231.189 209.875ZM238.213 211V201.182H239.67V202.716H239.798C240.002 202.192 240.333 201.785 240.789 201.495C241.245 201.201 241.792 201.054 242.431 201.054C243.079 201.054 243.618 201.201 244.049 201.495C244.483 201.785 244.822 202.192 245.065 202.716H245.167C245.419 202.209 245.796 201.806 246.299 201.508C246.801 201.205 247.404 201.054 248.108 201.054C248.985 201.054 249.703 201.329 250.262 201.879C250.82 202.424 251.099 203.274 251.099 204.429V211H249.591V204.429C249.591 203.705 249.392 203.187 248.996 202.876C248.6 202.565 248.133 202.409 247.596 202.409C246.906 202.409 246.371 202.618 245.992 203.036C245.613 203.449 245.423 203.973 245.423 204.608V211H243.889V204.276C243.889 203.717 243.708 203.268 243.346 202.927C242.983 202.582 242.517 202.409 241.946 202.409C241.554 202.409 241.187 202.513 240.846 202.722C240.51 202.931 240.237 203.221 240.028 203.592C239.824 203.958 239.721 204.382 239.721 204.864V211H238.213ZM257.974 211.205C257.028 211.205 256.212 210.996 255.526 210.578C254.844 210.156 254.317 209.568 253.947 208.814C253.58 208.055 253.397 207.173 253.397 206.168C253.397 205.162 253.58 204.276 253.947 203.509C254.317 202.737 254.833 202.136 255.494 201.706C256.158 201.271 256.934 201.054 257.82 201.054C258.332 201.054 258.837 201.139 259.335 201.31C259.834 201.48 260.288 201.757 260.697 202.141C261.106 202.52 261.432 203.023 261.675 203.649C261.918 204.276 262.039 205.047 262.039 205.963V206.602H254.471V205.298H260.505C260.505 204.744 260.394 204.25 260.173 203.815C259.955 203.381 259.644 203.038 259.239 202.786C258.839 202.535 258.366 202.409 257.82 202.409C257.219 202.409 256.7 202.558 256.261 202.857C255.826 203.151 255.491 203.534 255.257 204.007C255.023 204.48 254.906 204.987 254.906 205.528V206.398C254.906 207.139 255.033 207.768 255.289 208.283C255.549 208.795 255.909 209.185 256.369 209.453C256.83 209.717 257.364 209.849 257.974 209.849C258.37 209.849 258.728 209.794 259.048 209.683C259.371 209.568 259.651 209.398 259.885 209.172C260.119 208.942 260.3 208.656 260.428 208.315L261.886 208.724C261.732 209.219 261.474 209.653 261.112 210.028C260.75 210.399 260.303 210.689 259.77 210.898C259.237 211.102 258.638 211.205 257.974 211.205ZM268.604 201.182V202.46H263.516V201.182H268.604ZM264.999 198.83H266.507V208.188C266.507 208.614 266.569 208.933 266.692 209.146C266.82 209.355 266.982 209.496 267.178 209.568C267.379 209.636 267.589 209.67 267.811 209.67C267.977 209.67 268.114 209.662 268.22 209.645C268.327 209.624 268.412 209.607 268.476 209.594L268.783 210.949C268.68 210.987 268.538 211.026 268.354 211.064C268.171 211.107 267.939 211.128 267.658 211.128C267.232 211.128 266.814 211.036 266.405 210.853C266 210.67 265.663 210.391 265.395 210.016C265.131 209.641 264.999 209.168 264.999 208.597V198.83ZM273.123 209.21L273.021 209.901C272.948 210.386 272.837 210.906 272.688 211.46C272.543 212.014 272.392 212.536 272.234 213.026C272.077 213.516 271.947 213.906 271.844 214.196H270.694C270.749 213.923 270.822 213.563 270.911 213.116C271.001 212.668 271.09 212.168 271.18 211.614C271.273 211.064 271.35 210.501 271.41 209.926L271.487 209.21H273.123ZM47.5851 233.205C46.6647 233.205 45.8721 232.987 45.2073 232.553C44.5425 232.118 44.0312 231.519 43.6732 230.756C43.3153 229.994 43.1363 229.122 43.1363 228.142C43.1363 227.145 43.3195 226.265 43.686 225.502C44.0567 224.735 44.5724 224.136 45.2329 223.706C45.8976 223.271 46.6732 223.054 47.5596 223.054C48.2499 223.054 48.8721 223.182 49.426 223.438C49.98 223.693 50.4339 224.051 50.7876 224.511C51.1412 224.972 51.3607 225.509 51.4459 226.122H49.9374C49.8224 225.675 49.5667 225.278 49.1704 224.933C48.7783 224.584 48.2499 224.409 47.5851 224.409C46.9971 224.409 46.4814 224.562 46.0383 224.869C45.5993 225.172 45.2563 225.6 45.0091 226.154C44.7662 226.704 44.6448 227.349 44.6448 228.091C44.6448 228.849 44.7641 229.51 45.0028 230.072C45.2456 230.635 45.5866 231.072 46.0255 231.383C46.4687 231.694 46.9885 231.849 47.5851 231.849C47.9772 231.849 48.333 231.781 48.6526 231.645C48.9722 231.509 49.2428 231.312 49.4644 231.057C49.686 230.801 49.8437 230.494 49.9374 230.136H51.4459C51.3607 230.716 51.1498 231.238 50.8131 231.702C50.4807 232.163 50.0397 232.529 49.49 232.802C48.9445 233.07 48.3096 233.205 47.5851 233.205ZM57.6398 233.205C56.7535 233.205 55.9758 232.994 55.3067 232.572C54.642 232.15 54.1221 231.56 53.7471 230.801C53.3763 230.043 53.191 229.156 53.191 228.142C53.191 227.119 53.3763 226.227 53.7471 225.464C54.1221 224.701 54.642 224.109 55.3067 223.687C55.9758 223.265 56.7535 223.054 57.6398 223.054C58.5262 223.054 59.3018 223.265 59.9665 223.687C60.6356 224.109 61.1555 224.701 61.5262 225.464C61.9012 226.227 62.0887 227.119 62.0887 228.142C62.0887 229.156 61.9012 230.043 61.5262 230.801C61.1555 231.56 60.6356 232.15 59.9665 232.572C59.3018 232.994 58.5262 233.205 57.6398 233.205ZM57.6398 231.849C58.3131 231.849 58.8671 231.677 59.3018 231.332C59.7364 230.987 60.0582 230.533 60.267 229.97C60.4758 229.408 60.5802 228.798 60.5802 228.142C60.5802 227.486 60.4758 226.874 60.267 226.308C60.0582 225.741 59.7364 225.283 59.3018 224.933C58.8671 224.584 58.3131 224.409 57.6398 224.409C56.9665 224.409 56.4126 224.584 55.9779 224.933C55.5432 225.283 55.2215 225.741 55.0127 226.308C54.8039 226.874 54.6995 227.486 54.6995 228.142C54.6995 228.798 54.8039 229.408 55.0127 229.97C55.2215 230.533 55.5432 230.987 55.9779 231.332C56.4126 231.677 56.9665 231.849 57.6398 231.849ZM65.8999 227.094V233H64.3914V223.182H65.8488V224.716H65.9767C66.2068 224.217 66.5562 223.817 67.0249 223.514C67.4937 223.207 68.0988 223.054 68.8403 223.054C69.5051 223.054 70.0867 223.19 70.5853 223.463C71.0839 223.732 71.4717 224.141 71.7487 224.69C72.0257 225.236 72.1642 225.926 72.1642 226.761V233H70.6556V226.864C70.6556 226.092 70.4553 225.491 70.0548 225.061C69.6542 224.626 69.1045 224.409 68.4056 224.409C67.9241 224.409 67.4937 224.513 67.1144 224.722C66.7394 224.931 66.4433 225.236 66.2259 225.636C66.0086 226.037 65.8999 226.523 65.8999 227.094ZM81.8753 225.381L80.5202 225.764C80.4349 225.538 80.3092 225.319 80.143 225.106C79.9811 224.888 79.7595 224.71 79.4782 224.569C79.197 224.428 78.8369 224.358 78.398 224.358C77.7971 224.358 77.2964 224.496 76.8959 224.773C76.4996 225.046 76.3014 225.393 76.3014 225.815C76.3014 226.19 76.4378 226.487 76.7105 226.704C76.9832 226.921 77.4094 227.102 77.9889 227.247L79.4463 227.605C80.3241 227.818 80.9782 228.144 81.4086 228.583C81.839 229.018 82.0542 229.578 82.0542 230.264C82.0542 230.827 81.8923 231.33 81.5684 231.773C81.2488 232.216 80.8014 232.565 80.2261 232.821C79.6508 233.077 78.9818 233.205 78.219 233.205C77.2176 233.205 76.3888 232.987 75.7325 232.553C75.0763 232.118 74.6608 231.483 74.4861 230.648L75.9179 230.29C76.0542 230.818 76.3121 231.214 76.6913 231.479C77.0748 231.743 77.5756 231.875 78.1934 231.875C78.8966 231.875 79.4548 231.726 79.8682 231.428C80.2858 231.125 80.4946 230.763 80.4946 230.341C80.4946 230 80.3753 229.714 80.1366 229.484C79.898 229.25 79.5315 229.075 79.0372 228.96L77.4008 228.577C76.5017 228.364 75.8412 228.033 75.4193 227.586C75.0017 227.134 74.7929 226.57 74.7929 225.892C74.7929 225.338 74.9484 224.848 75.2595 224.422C75.5748 223.996 76.0031 223.661 76.5443 223.418C77.0898 223.175 77.7077 223.054 78.398 223.054C79.3696 223.054 80.1324 223.267 80.6863 223.693C81.2446 224.119 81.6409 224.682 81.8753 225.381ZM88.4415 233.205C87.4955 233.205 86.6794 232.996 85.9933 232.578C85.3115 232.156 84.7852 231.568 84.4145 230.814C84.048 230.055 83.8648 229.173 83.8648 228.168C83.8648 227.162 84.048 226.276 84.4145 225.509C84.7852 224.737 85.3009 224.136 85.9614 223.706C86.6262 223.271 87.4017 223.054 88.2881 223.054C88.7994 223.054 89.3044 223.139 89.803 223.31C90.3016 223.48 90.7554 223.757 91.1645 224.141C91.5736 224.52 91.8996 225.023 92.1425 225.649C92.3854 226.276 92.5068 227.047 92.5068 227.963V228.602H84.9387V227.298H90.9727C90.9727 226.744 90.8619 226.25 90.6404 225.815C90.423 225.381 90.1119 225.038 89.7071 224.786C89.3066 224.535 88.8335 224.409 88.2881 224.409C87.6872 224.409 87.1673 224.558 86.7284 224.857C86.2938 225.151 85.9593 225.534 85.7249 226.007C85.4905 226.48 85.3733 226.987 85.3733 227.528V228.398C85.3733 229.139 85.5012 229.768 85.7568 230.283C86.0168 230.795 86.3769 231.185 86.8371 231.453C87.2973 231.717 87.8321 231.849 88.4415 231.849C88.8378 231.849 89.1958 231.794 89.5154 231.683C89.8392 231.568 90.1183 231.398 90.3527 231.172C90.5871 230.942 90.7682 230.656 90.896 230.315L92.3534 230.724C92.2 231.219 91.9422 231.653 91.58 232.028C91.2178 232.399 90.7703 232.689 90.2377 232.898C89.705 233.102 89.1063 233.205 88.4415 233.205ZM98.7902 233.205C97.8698 233.205 97.0771 232.987 96.4124 232.553C95.7476 232.118 95.2362 231.519 94.8783 230.756C94.5203 229.994 94.3414 229.122 94.3414 228.142C94.3414 227.145 94.5246 226.265 94.8911 225.502C95.2618 224.735 95.7774 224.136 96.4379 223.706C97.1027 223.271 97.8783 223.054 98.7646 223.054C99.455 223.054 100.077 223.182 100.631 223.438C101.185 223.693 101.639 224.051 101.993 224.511C102.346 224.972 102.566 225.509 102.651 226.122H101.142C101.027 225.675 100.772 225.278 100.375 224.933C99.9834 224.584 99.455 224.409 98.7902 224.409C98.2021 224.409 97.6865 224.562 97.2433 224.869C96.8044 225.172 96.4614 225.6 96.2142 226.154C95.9713 226.704 95.8499 227.349 95.8499 228.091C95.8499 228.849 95.9692 229.51 96.2078 230.072C96.4507 230.635 96.7916 231.072 97.2306 231.383C97.6737 231.694 98.1936 231.849 98.7902 231.849C99.1823 231.849 99.5381 231.781 99.8577 231.645C100.177 231.509 100.448 231.312 100.669 231.057C100.891 230.801 101.049 230.494 101.142 230.136H102.651C102.566 230.716 102.355 231.238 102.018 231.702C101.686 232.163 101.245 232.529 100.695 232.802C100.15 233.07 99.5146 233.205 98.7902 233.205ZM109.126 223.182V224.46H104.038V223.182H109.126ZM105.521 220.83H107.03V230.188C107.03 230.614 107.091 230.933 107.215 231.146C107.343 231.355 107.505 231.496 107.701 231.568C107.901 231.636 108.112 231.67 108.334 231.67C108.5 231.67 108.636 231.662 108.743 231.645C108.849 231.624 108.934 231.607 108.998 231.594L109.305 232.949C109.203 232.987 109.06 233.026 108.877 233.064C108.694 233.107 108.461 233.128 108.18 233.128C107.754 233.128 107.336 233.036 106.927 232.853C106.522 232.67 106.186 232.391 105.917 232.016C105.653 231.641 105.521 231.168 105.521 230.597V220.83ZM115.406 233.205C114.46 233.205 113.644 232.996 112.958 232.578C112.276 232.156 111.75 231.568 111.379 230.814C111.013 230.055 110.83 229.173 110.83 228.168C110.83 227.162 111.013 226.276 111.379 225.509C111.75 224.737 112.266 224.136 112.926 223.706C113.591 223.271 114.367 223.054 115.253 223.054C115.764 223.054 116.269 223.139 116.768 223.31C117.266 223.48 117.72 223.757 118.129 224.141C118.538 224.52 118.864 225.023 119.107 225.649C119.35 226.276 119.472 227.047 119.472 227.963V228.602H111.903V227.298H117.938C117.938 226.744 117.827 226.25 117.605 225.815C117.388 225.381 117.077 225.038 116.672 224.786C116.271 224.535 115.798 224.409 115.253 224.409C114.652 224.409 114.132 224.558 113.693 224.857C113.259 225.151 112.924 225.534 112.69 226.007C112.455 226.48 112.338 226.987 112.338 227.528V228.398C112.338 229.139 112.466 229.768 112.722 230.283C112.982 230.795 113.342 231.185 113.802 231.453C114.262 231.717 114.797 231.849 115.406 231.849C115.803 231.849 116.161 231.794 116.48 231.683C116.804 231.568 117.083 231.398 117.318 231.172C117.552 230.942 117.733 230.656 117.861 230.315L119.318 230.724C119.165 231.219 118.907 231.653 118.545 232.028C118.183 232.399 117.735 232.689 117.203 232.898C116.67 233.102 116.071 233.205 115.406 233.205ZM126.036 223.182V224.46H120.948V223.182H126.036ZM122.431 220.83H123.94V230.188C123.94 230.614 124.002 230.933 124.125 231.146C124.253 231.355 124.415 231.496 124.611 231.568C124.811 231.636 125.022 231.67 125.244 231.67C125.41 231.67 125.546 231.662 125.653 231.645C125.759 231.624 125.845 231.607 125.908 231.594L126.215 232.949C126.113 232.987 125.97 233.026 125.787 233.064C125.604 233.107 125.372 233.128 125.09 233.128C124.664 233.128 124.247 233.036 123.837 232.853C123.433 232.67 123.096 232.391 122.828 232.016C122.563 231.641 122.431 231.168 122.431 230.597V220.83ZM134.493 228.986V223.182H136.002V233H134.493V231.338H134.391C134.161 231.837 133.803 232.261 133.317 232.61C132.831 232.955 132.217 233.128 131.476 233.128C130.862 233.128 130.317 232.994 129.84 232.725C129.362 232.452 128.987 232.043 128.715 231.498C128.442 230.948 128.305 230.256 128.305 229.42V223.182H129.814V229.318C129.814 230.034 130.014 230.605 130.415 231.031C130.82 231.457 131.335 231.67 131.962 231.67C132.337 231.67 132.718 231.575 133.106 231.383C133.498 231.191 133.826 230.897 134.09 230.501C134.359 230.104 134.493 229.599 134.493 228.986ZM138.764 233V223.182H140.222V224.665H140.324C140.503 224.179 140.827 223.785 141.296 223.482C141.764 223.18 142.293 223.028 142.881 223.028C142.992 223.028 143.13 223.031 143.296 223.035C143.463 223.039 143.588 223.045 143.674 223.054V224.588C143.622 224.575 143.505 224.556 143.322 224.531C143.143 224.501 142.953 224.486 142.753 224.486C142.276 224.486 141.85 224.586 141.475 224.786C141.104 224.982 140.81 225.255 140.593 225.604C140.38 225.95 140.273 226.344 140.273 226.787V233H138.764ZM153.413 233.23C152.791 233.23 152.227 233.113 151.72 232.879C151.212 232.64 150.81 232.297 150.511 231.849C150.213 231.398 150.064 230.852 150.064 230.213C150.064 229.651 150.175 229.195 150.396 228.845C150.618 228.491 150.914 228.214 151.285 228.014C151.656 227.814 152.065 227.665 152.512 227.567C152.964 227.464 153.418 227.384 153.874 227.324C154.47 227.247 154.954 227.19 155.325 227.151C155.7 227.109 155.972 227.038 156.143 226.94C156.318 226.842 156.405 226.672 156.405 226.429V226.378C156.405 225.747 156.232 225.257 155.887 224.908C155.546 224.558 155.028 224.384 154.334 224.384C153.614 224.384 153.049 224.541 152.64 224.857C152.231 225.172 151.943 225.509 151.777 225.866L150.345 225.355C150.601 224.759 150.942 224.294 151.368 223.962C151.798 223.625 152.267 223.391 152.774 223.259C153.286 223.122 153.788 223.054 154.283 223.054C154.598 223.054 154.96 223.092 155.369 223.169C155.783 223.241 156.181 223.393 156.565 223.623C156.953 223.853 157.274 224.2 157.53 224.665C157.786 225.129 157.913 225.751 157.913 226.531V233H156.405V231.67H156.328C156.226 231.884 156.055 232.112 155.817 232.354C155.578 232.597 155.261 232.804 154.864 232.974C154.468 233.145 153.984 233.23 153.413 233.23ZM153.644 231.875C154.24 231.875 154.743 231.758 155.152 231.523C155.565 231.289 155.877 230.987 156.085 230.616C156.298 230.245 156.405 229.855 156.405 229.446V228.065C156.341 228.142 156.2 228.212 155.983 228.276C155.77 228.336 155.523 228.389 155.242 228.436C154.965 228.479 154.694 228.517 154.43 228.551C154.17 228.581 153.959 228.607 153.797 228.628C153.405 228.679 153.038 228.762 152.698 228.877C152.361 228.988 152.088 229.156 151.879 229.382C151.675 229.604 151.573 229.906 151.573 230.29C151.573 230.814 151.766 231.21 152.154 231.479C152.546 231.743 153.043 231.875 153.644 231.875ZM164.374 233.205C163.556 233.205 162.834 232.998 162.207 232.585C161.581 232.167 161.091 231.579 160.737 230.82C160.383 230.058 160.207 229.156 160.207 228.116C160.207 227.085 160.383 226.19 160.737 225.432C161.091 224.673 161.583 224.087 162.214 223.674C162.844 223.261 163.573 223.054 164.4 223.054C165.039 223.054 165.544 223.161 165.915 223.374C166.29 223.582 166.575 223.821 166.771 224.089C166.972 224.354 167.127 224.571 167.238 224.741H167.366V219.909H168.874V233H167.417V231.491H167.238C167.127 231.67 166.969 231.896 166.765 232.169C166.56 232.437 166.268 232.678 165.889 232.891C165.51 233.1 165.005 233.205 164.374 233.205ZM164.579 231.849C165.184 231.849 165.695 231.692 166.113 231.376C166.53 231.057 166.848 230.616 167.065 230.053C167.283 229.487 167.391 228.832 167.391 228.091C167.391 227.358 167.285 226.717 167.072 226.167C166.859 225.613 166.543 225.183 166.126 224.876C165.708 224.565 165.192 224.409 164.579 224.409C163.94 224.409 163.407 224.573 162.981 224.901C162.559 225.225 162.241 225.666 162.028 226.224C161.82 226.778 161.715 227.401 161.715 228.091C161.715 228.79 161.822 229.425 162.035 229.996C162.252 230.562 162.572 231.014 162.994 231.351C163.42 231.683 163.948 231.849 164.579 231.849ZM171.847 233V223.182H173.355V233H171.847ZM172.614 221.545C172.32 221.545 172.066 221.445 171.853 221.245C171.644 221.045 171.54 220.804 171.54 220.523C171.54 220.241 171.644 220.001 171.853 219.8C172.066 219.6 172.32 219.5 172.614 219.5C172.908 219.5 173.159 219.6 173.368 219.8C173.581 220.001 173.687 220.241 173.687 220.523C173.687 220.804 173.581 221.045 173.368 221.245C173.159 221.445 172.908 221.545 172.614 221.545ZM176.118 236.682V223.182H177.575V224.741H177.754C177.865 224.571 178.019 224.354 178.215 224.089C178.415 223.821 178.7 223.582 179.071 223.374C179.446 223.161 179.953 223.054 180.592 223.054C181.419 223.054 182.148 223.261 182.778 223.674C183.409 224.087 183.901 224.673 184.255 225.432C184.609 226.19 184.786 227.085 184.786 228.116C184.786 229.156 184.609 230.058 184.255 230.82C183.901 231.579 183.411 232.167 182.785 232.585C182.158 232.998 181.436 233.205 180.618 233.205C179.987 233.205 179.482 233.1 179.103 232.891C178.724 232.678 178.432 232.437 178.227 232.169C178.023 231.896 177.865 231.67 177.754 231.491H177.627V236.682H176.118ZM177.601 228.091C177.601 228.832 177.71 229.487 177.927 230.053C178.144 230.616 178.462 231.057 178.879 231.376C179.297 231.692 179.808 231.849 180.413 231.849C181.044 231.849 181.57 231.683 181.992 231.351C182.418 231.014 182.738 230.562 182.951 229.996C183.168 229.425 183.277 228.79 183.277 228.091C183.277 227.401 183.171 226.778 182.957 226.224C182.749 225.666 182.431 225.225 182.005 224.901C181.583 224.573 181.053 224.409 180.413 224.409C179.8 224.409 179.284 224.565 178.867 224.876C178.449 225.183 178.134 225.613 177.921 226.167C177.707 226.717 177.601 227.358 177.601 228.091ZM187.087 233V223.182H188.595V233H187.087ZM187.854 221.545C187.56 221.545 187.306 221.445 187.093 221.245C186.884 221.045 186.78 220.804 186.78 220.523C186.78 220.241 186.884 220.001 187.093 219.8C187.306 219.6 187.56 219.5 187.854 219.5C188.148 219.5 188.399 219.6 188.608 219.8C188.821 220.001 188.928 220.241 188.928 220.523C188.928 220.804 188.821 221.045 188.608 221.245C188.399 221.445 188.148 221.545 187.854 221.545ZM198.313 225.381L196.958 225.764C196.872 225.538 196.747 225.319 196.581 225.106C196.419 224.888 196.197 224.71 195.916 224.569C195.634 224.428 195.274 224.358 194.835 224.358C194.235 224.358 193.734 224.496 193.333 224.773C192.937 225.046 192.739 225.393 192.739 225.815C192.739 226.19 192.875 226.487 193.148 226.704C193.421 226.921 193.847 227.102 194.426 227.247L195.884 227.605C196.762 227.818 197.416 228.144 197.846 228.583C198.277 229.018 198.492 229.578 198.492 230.264C198.492 230.827 198.33 231.33 198.006 231.773C197.686 232.216 197.239 232.565 196.664 232.821C196.088 233.077 195.419 233.205 194.657 233.205C193.655 233.205 192.826 232.987 192.17 232.553C191.514 232.118 191.098 231.483 190.924 230.648L192.355 230.29C192.492 230.818 192.75 231.214 193.129 231.479C193.512 231.743 194.013 231.875 194.631 231.875C195.334 231.875 195.892 231.726 196.306 231.428C196.723 231.125 196.932 230.763 196.932 230.341C196.932 230 196.813 229.714 196.574 229.484C196.335 229.25 195.969 229.075 195.475 228.96L193.838 228.577C192.939 228.364 192.279 228.033 191.857 227.586C191.439 227.134 191.23 226.57 191.23 225.892C191.23 225.338 191.386 224.848 191.697 224.422C192.012 223.996 192.441 223.661 192.982 223.418C193.527 223.175 194.145 223.054 194.835 223.054C195.807 223.054 196.57 223.267 197.124 223.693C197.682 224.119 198.078 224.682 198.313 225.381ZM204.751 233.205C203.831 233.205 203.038 232.987 202.373 232.553C201.709 232.118 201.197 231.519 200.839 230.756C200.481 229.994 200.302 229.122 200.302 228.142C200.302 227.145 200.486 226.265 200.852 225.502C201.223 224.735 201.738 224.136 202.399 223.706C203.064 223.271 203.839 223.054 204.726 223.054C205.416 223.054 206.038 223.182 206.592 223.438C207.146 223.693 207.6 224.051 207.954 224.511C208.307 224.972 208.527 225.509 208.612 226.122H207.103C206.988 225.675 206.733 225.278 206.336 224.933C205.944 224.584 205.416 224.409 204.751 224.409C204.163 224.409 203.647 224.562 203.204 224.869C202.765 225.172 202.422 225.6 202.175 226.154C201.932 226.704 201.811 227.349 201.811 228.091C201.811 228.849 201.93 229.51 202.169 230.072C202.412 230.635 202.753 231.072 203.191 231.383C203.635 231.694 204.155 231.849 204.751 231.849C205.143 231.849 205.499 231.781 205.819 231.645C206.138 231.509 206.409 231.312 206.63 231.057C206.852 230.801 207.01 230.494 207.103 230.136H208.612C208.527 230.716 208.316 231.238 207.979 231.702C207.647 232.163 207.206 232.529 206.656 232.802C206.111 233.07 205.476 233.205 204.751 233.205ZM210.817 233V223.182H212.326V233H210.817ZM211.584 221.545C211.29 221.545 211.037 221.445 210.824 221.245C210.615 221.045 210.51 220.804 210.51 220.523C210.51 220.241 210.615 220.001 210.824 219.8C211.037 219.6 211.29 219.5 211.584 219.5C211.878 219.5 212.13 219.6 212.339 219.8C212.552 220.001 212.658 220.241 212.658 220.523C212.658 220.804 212.552 221.045 212.339 221.245C212.13 221.445 211.878 221.545 211.584 221.545ZM216.597 227.094V233H215.089V223.182H216.546V224.716H216.674C216.904 224.217 217.253 223.817 217.722 223.514C218.191 223.207 218.796 223.054 219.538 223.054C220.202 223.054 220.784 223.19 221.283 223.463C221.781 223.732 222.169 224.141 222.446 224.69C222.723 225.236 222.861 225.926 222.861 226.761V233H221.353V226.864C221.353 226.092 221.153 225.491 220.752 225.061C220.351 224.626 219.802 224.409 219.103 224.409C218.621 224.409 218.191 224.513 217.812 224.722C217.437 224.931 217.141 225.236 216.923 225.636C216.706 226.037 216.597 226.523 216.597 227.094ZM229.581 236.886C228.852 236.886 228.226 236.793 227.702 236.605C227.178 236.422 226.741 236.179 226.391 235.876C226.046 235.578 225.771 235.259 225.567 234.918L226.769 234.074C226.905 234.253 227.078 234.457 227.286 234.688C227.495 234.922 227.781 235.124 228.143 235.295C228.509 235.469 228.989 235.557 229.581 235.557C230.374 235.557 231.028 235.365 231.543 234.982C232.059 234.598 232.317 233.997 232.317 233.179V231.185H232.189C232.078 231.364 231.921 231.585 231.716 231.849C231.516 232.109 231.226 232.342 230.847 232.546C230.472 232.746 229.965 232.847 229.325 232.847C228.533 232.847 227.821 232.659 227.19 232.284C226.564 231.909 226.068 231.364 225.701 230.648C225.339 229.932 225.158 229.062 225.158 228.04C225.158 227.034 225.335 226.158 225.688 225.413C226.042 224.663 226.534 224.083 227.165 223.674C227.796 223.261 228.524 223.054 229.351 223.054C229.99 223.054 230.497 223.161 230.872 223.374C231.252 223.582 231.541 223.821 231.742 224.089C231.946 224.354 232.104 224.571 232.215 224.741H232.368V223.182H233.825V233.281C233.825 234.125 233.634 234.811 233.25 235.339C232.871 235.872 232.359 236.262 231.716 236.509C231.077 236.761 230.365 236.886 229.581 236.886ZM229.53 231.491C230.135 231.491 230.646 231.353 231.064 231.076C231.482 230.799 231.799 230.401 232.016 229.881C232.234 229.361 232.342 228.739 232.342 228.014C232.342 227.307 232.236 226.683 232.023 226.141C231.81 225.6 231.494 225.176 231.077 224.869C230.659 224.562 230.144 224.409 229.53 224.409C228.891 224.409 228.358 224.571 227.932 224.895C227.51 225.219 227.193 225.653 226.979 226.199C226.771 226.744 226.666 227.349 226.666 228.014C226.666 228.696 226.773 229.299 226.986 229.823C227.203 230.343 227.523 230.752 227.945 231.05C228.371 231.344 228.899 231.491 229.53 231.491ZM245.766 233.205C244.82 233.205 244.004 232.996 243.318 232.578C242.636 232.156 242.109 231.568 241.739 230.814C241.372 230.055 241.189 229.173 241.189 228.168C241.189 227.162 241.372 226.276 241.739 225.509C242.109 224.737 242.625 224.136 243.286 223.706C243.95 223.271 244.726 223.054 245.612 223.054C246.124 223.054 246.629 223.139 247.127 223.31C247.626 223.48 248.08 223.757 248.489 224.141C248.898 224.52 249.224 225.023 249.467 225.649C249.71 226.276 249.831 227.047 249.831 227.963V228.602H242.263V227.298H248.297C248.297 226.744 248.186 226.25 247.965 225.815C247.747 225.381 247.436 225.038 247.031 224.786C246.631 224.535 246.158 224.409 245.612 224.409C245.011 224.409 244.492 224.558 244.053 224.857C243.618 225.151 243.283 225.534 243.049 226.007C242.815 226.48 242.698 226.987 242.698 227.528V228.398C242.698 229.139 242.825 229.768 243.081 230.283C243.341 230.795 243.701 231.185 244.161 231.453C244.622 231.717 245.156 231.849 245.766 231.849C246.162 231.849 246.52 231.794 246.84 231.683C247.163 231.568 247.443 231.398 247.677 231.172C247.911 230.942 248.092 230.656 248.22 230.315L249.678 230.724C249.524 231.219 249.266 231.653 248.904 232.028C248.542 232.399 248.095 232.689 247.562 232.898C247.029 233.102 246.43 233.205 245.766 233.205ZM253.634 219.909V233H252.126V219.909H253.634ZM256.397 233V223.182H257.906V233H256.397ZM257.164 221.545C256.87 221.545 256.617 221.445 256.404 221.245C256.195 221.045 256.09 220.804 256.09 220.523C256.09 220.241 256.195 220.001 256.404 219.8C256.617 219.6 256.87 219.5 257.164 219.5C257.458 219.5 257.71 219.6 257.919 219.8C258.132 220.001 258.238 220.241 258.238 220.523C258.238 220.804 258.132 221.045 257.919 221.245C257.71 221.445 257.458 221.545 257.164 221.545ZM264.939 223.182V224.46H259.851V223.182H264.939ZM261.334 220.83H262.842V230.188C262.842 230.614 262.904 230.933 263.027 231.146C263.155 231.355 263.317 231.496 263.513 231.568C263.714 231.636 263.924 231.67 264.146 231.67C264.312 231.67 264.449 231.662 264.555 231.645C264.662 231.624 264.747 231.607 264.811 231.594L265.118 232.949C265.015 232.987 264.873 233.026 264.689 233.064C264.506 233.107 264.274 233.128 263.993 233.128C263.566 233.128 263.149 233.036 262.74 232.853C262.335 232.67 261.998 232.391 261.73 232.016C261.466 231.641 261.334 231.168 261.334 230.597V220.83ZM268.307 233.102C267.992 233.102 267.721 232.989 267.495 232.763C267.27 232.538 267.157 232.267 267.157 231.952C267.157 231.636 267.27 231.366 267.495 231.14C267.721 230.914 267.992 230.801 268.307 230.801C268.623 230.801 268.893 230.914 269.119 231.14C269.345 231.366 269.458 231.636 269.458 231.952C269.458 232.161 269.405 232.352 269.298 232.527C269.196 232.702 269.057 232.842 268.883 232.949C268.712 233.051 268.52 233.102 268.307 233.102Z" fill="#232323"/>
<rect x="82" width="150" height="150" rx="20" fill="#FFDDE4"/>
<path d="M182.723 49.3235C184.783 46.3376 189.214 38.8204 185.883 33.5392C184.277 30.9938 181.519 30.1267 180.342 29.7579C176.817 28.647 170.994 28.6079 163.28 34.711C160.634 36.8032 155.792 42.1829 154.994 48.436H150.188C149.789 48.436 149.405 48.5892 149.114 48.861L135.052 62.1251C134.739 62.4235 134.562 62.8345 134.562 63.2642V120.313C134.562 121.177 135.261 121.875 136.125 121.875H179.875C180.739 121.875 181.438 121.177 181.438 120.313V63.2642C181.438 62.8345 181.261 62.4235 180.948 62.1267L175.212 56.7157C177.945 54.8563 180.566 52.4532 182.723 49.3235ZM178.312 63.9392V118.75H137.688V63.9392L150.808 51.5626H165.191L170.025 56.122C167.828 57.2173 165.667 57.9767 163.744 58.4829C162.789 56.2532 160.575 54.6876 158 54.6876C154.553 54.6876 151.75 57.4907 151.75 60.9376C151.75 64.3845 154.553 67.1876 158 67.1876C161.216 67.1876 163.839 64.7407 164.181 61.6157C166.688 60.9907 169.57 59.9704 172.45 58.4095L178.312 63.9392ZM160.816 62.2688C160.314 63.3251 159.245 64.0626 158 64.0626C156.277 64.0626 154.875 62.661 154.875 60.9376C154.875 59.2142 156.277 57.8126 158 57.8126C159.056 57.8126 159.987 58.3423 160.555 59.1485C159.508 59.3048 158.625 59.3751 158 59.3751V62.5001C158.719 62.5001 159.691 62.4267 160.816 62.2688ZM172.875 54.5126L166.886 48.8626C166.595 48.5907 166.211 48.4376 165.812 48.4376H158.155C159.006 43.1532 163.422 38.586 165.22 37.161C170.548 32.9454 175.32 31.4563 179.406 32.7407C180.4 33.0517 182.245 33.6329 183.241 35.2079C185.152 38.236 182.897 43.5688 180.15 47.5485C178.091 50.5345 175.533 52.8017 172.875 54.5126Z" fill="#DE1B41"/>
<path d="M158 73.4375C150.245 73.4375 143.937 80.0969 143.937 88.2812C143.937 91.6672 145.028 94.7812 146.842 97.2812L142.454 110.444C142.267 111.005 142.414 111.625 142.831 112.042C143.129 112.339 143.529 112.5 143.937 112.5C144.101 112.5 144.27 112.473 144.431 112.419L148.503 111.063L151.05 112.334C151.456 112.538 151.928 112.555 152.347 112.38C152.765 112.205 153.089 111.859 153.229 111.431L156.051 102.966C156.69 103.059 157.337 103.125 158 103.125C158.662 103.125 159.309 103.059 159.947 102.966L162.768 111.431C162.911 111.859 163.234 112.206 163.651 112.38C164.07 112.552 164.54 112.536 164.948 112.334L167.495 111.063L171.567 112.419C171.729 112.473 171.898 112.5 172.062 112.5C172.47 112.5 172.87 112.339 173.167 112.042C173.586 111.623 173.731 111.005 173.543 110.444L169.156 97.2812C170.972 94.7812 172.062 91.6672 172.062 88.2812C172.062 80.0969 165.754 73.4375 158 73.4375ZM153.029 102.156L150.837 108.734L149.323 107.978C149.104 107.867 148.865 107.812 148.625 107.812C148.459 107.812 148.292 107.839 148.131 107.894L146.407 108.467L149.262 99.9016C149.301 99.9344 149.345 99.9562 149.384 99.9891C149.886 100.4 150.412 100.777 150.964 101.116C151.012 101.145 151.059 101.178 151.107 101.208C151.703 101.562 152.326 101.867 152.972 102.128C152.992 102.136 153.009 102.148 153.029 102.156ZM155.411 99.6547C155.407 99.6547 155.406 99.6516 155.403 99.6516C154.334 99.3719 153.328 98.9234 152.4 98.3297C152.359 98.3031 152.317 98.2766 152.276 98.2484C151.375 97.6531 150.553 96.9172 149.836 96.0531C148.117 93.9812 147.062 91.2641 147.062 88.2812C147.062 81.8187 151.97 76.5625 158 76.5625C164.029 76.5625 168.937 81.8187 168.937 88.2812C168.937 91.2641 167.882 93.9812 166.164 96.0516C165.447 96.9172 164.625 97.6531 163.723 98.2484C163.682 98.275 163.642 98.3016 163.6 98.3281C162.673 98.9219 161.665 99.3703 160.597 99.65C160.593 99.65 160.592 99.6531 160.589 99.6531C159.757 99.8719 158.893 100 158 100C157.106 100 156.242 99.8719 155.411 99.6547ZM167.868 107.894C167.473 107.759 167.048 107.792 166.675 107.978L165.161 108.734L162.968 102.156C162.989 102.148 163.007 102.136 163.026 102.128C163.672 101.866 164.295 101.562 164.89 101.206C164.939 101.177 164.986 101.144 165.034 101.114C165.586 100.777 166.112 100.4 166.614 99.9875C166.653 99.9563 166.697 99.9328 166.736 99.9L169.59 108.466L167.868 107.894Z" fill="#DE1B41"/>
<path d="M159.562 95.025C161.377 94.3781 162.688 92.6594 162.688 90.625C162.688 90.1344 162.456 89.6703 162.062 89.375L156.589 85.2687C156.839 84.7406 157.378 84.375 158 84.375C158.863 84.375 159.562 85.075 159.562 85.9375H162.688C162.688 83.9031 161.377 82.1844 159.562 81.5375V79.6875H156.438V81.5375C154.623 82.1844 153.312 83.9031 153.312 85.9375C153.312 86.4281 153.544 86.8922 153.937 87.1875L159.411 91.2938C159.161 91.8219 158.622 92.1875 158 92.1875C157.138 92.1875 156.438 91.4875 156.438 90.625H153.312C153.312 92.6594 154.623 94.3781 156.438 95.025V96.875H159.562V95.025Z" fill="#DE1B41"/>
<path d="M134.562 32.8125H131.438V37.5H134.562V32.8125Z" fill="#DE1B41"/>
<path d="M143.938 42.1875H139.25V45.3125H143.938V42.1875Z" fill="#DE1B41"/>
<path d="M134.562 50H131.438V54.6875H134.562V50Z" fill="#DE1B41"/>
<path d="M126.75 42.1875H122.062V45.3125H126.75V42.1875Z" fill="#DE1B41"/>
<path d="M139.708 34.833L136.583 37.9575L138.793 40.1672L141.917 37.0427L139.708 34.833Z" fill="#DE1B41"/>
<path d="M138.793 47.3328L136.583 49.5425L139.708 52.667L141.917 50.4573L138.793 47.3328Z" fill="#DE1B41"/>
<path d="M127.208 47.333L124.083 50.4575L126.293 52.6672L129.417 49.5427L127.208 47.333Z" fill="#DE1B41"/>
<path d="M126.293 34.8328L124.083 37.0425L127.208 40.167L129.417 37.9573L126.293 34.8328Z" fill="#DE1B41"/>
<path d="M126.75 68.75C124.166 68.75 122.062 70.8531 122.062 73.4375C122.062 76.0219 124.166 78.125 126.75 78.125C129.334 78.125 131.438 76.0219 131.438 73.4375C131.438 70.8531 129.334 68.75 126.75 68.75ZM126.75 75C125.888 75 125.188 74.3 125.188 73.4375C125.188 72.575 125.888 71.875 126.75 71.875C127.613 71.875 128.312 72.575 128.312 73.4375C128.312 74.3 127.613 75 126.75 75Z" fill="#DE1B41"/>
<path d="M114.25 89.0625H111.125V92.1875H114.25V89.0625Z" fill="#DE1B41"/>
<path d="M117.375 85.9375H114.25V89.0625H117.375V85.9375Z" fill="#DE1B41"/>
<path d="M120.5 89.0625H117.375V92.1875H120.5V89.0625Z" fill="#DE1B41"/>
<path d="M117.375 92.1875H114.25V95.3125H117.375V92.1875Z" fill="#DE1B41"/>
<path d="M123.625 103.125C121.041 103.125 118.938 105.228 118.938 107.812C118.938 110.397 121.041 112.5 123.625 112.5C126.209 112.5 128.312 110.397 128.312 107.812C128.312 105.228 126.209 103.125 123.625 103.125ZM123.625 109.375C122.763 109.375 122.062 108.675 122.062 107.812C122.062 106.95 122.763 106.25 123.625 106.25C124.488 106.25 125.188 106.95 125.188 107.812C125.188 108.675 124.488 109.375 123.625 109.375Z" fill="#DE1B41"/>
<path d="M190.812 103.125C188.228 103.125 186.125 105.228 186.125 107.812C186.125 110.397 188.228 112.5 190.812 112.5C193.397 112.5 195.5 110.397 195.5 107.812C195.5 105.228 193.397 103.125 190.812 103.125ZM190.812 109.375C189.95 109.375 189.25 108.675 189.25 107.812C189.25 106.95 189.95 106.25 190.812 106.25C191.675 106.25 192.375 106.95 192.375 107.812C192.375 108.675 191.675 109.375 190.812 109.375Z" fill="#DE1B41"/>
<path d="M198.625 90.625H195.5V93.75H198.625V90.625Z" fill="#DE1B41"/>
<path d="M201.75 87.5H198.625V90.625H201.75V87.5Z" fill="#DE1B41"/>
<path d="M204.875 90.625H201.75V93.75H204.875V90.625Z" fill="#DE1B41"/>
<path d="M201.75 93.75H198.625V96.875H201.75V93.75Z" fill="#DE1B41"/>
<path d="M193.938 73.4375C193.938 70.8531 191.834 68.75 189.25 68.75C186.666 68.75 184.562 70.8531 184.562 73.4375C184.562 76.0219 186.666 78.125 189.25 78.125C191.834 78.125 193.938 76.0219 193.938 73.4375ZM187.688 73.4375C187.688 72.575 188.388 71.875 189.25 71.875C190.113 71.875 190.812 72.575 190.812 73.4375C190.812 74.3 190.113 75 189.25 75C188.388 75 187.688 74.3 187.688 73.4375Z" fill="#DE1B41"/>
<path d="M198.625 53.125H195.5V56.25H198.625V53.125Z" fill="#DE1B41"/>
<path d="M201.75 50H198.625V53.125H201.75V50Z" fill="#DE1B41"/>
<path d="M204.875 53.125H201.75V56.25H204.875V53.125Z" fill="#DE1B41"/>
<path d="M201.75 56.25H198.625V59.375H201.75V56.25Z" fill="#DE1B41"/>
</svg>
